<svg xmlns="http://www.w3.org/2000/svg" width="1800" height="980" viewBox="0 0 1800 980">
<rect width="100%" height="100%" fill="#F7F8FC"/>
<rect x="24" y="24" width="1752" height="932" rx="28" fill="#FFFFFF" stroke="#D7DCEA" stroke-width="2"/>
<text x="56" y="68" fill="#0F172A" font-size="30" font-weight="700" font-family="DejaVu Sans, Arial, sans-serif">Arsitektur Pipeline LPSE-X</text>
<text x="56" y="102" fill="#64748B" font-size="15" font-family="DejaVu Sans, Arial, sans-serif">Alur end-to-end dari data pengadaan mentah menuju risk score yang explainable untuk triase auditor.</text>
<rect x="1660.953125" y="46" width="81.046875" height="28" rx="14" fill="#E0F2FE"/>
<text x="1674.953125" y="64" fill="#0F172A" font-size="13" font-weight="700" font-family="DejaVu Sans, Arial, sans-serif">Track C</text>
<rect x="1574.875" y="46" width="76.078125" height="28" rx="14" fill="#DCFCE7"/>
<text x="1588.875" y="64" fill="#0F172A" font-size="13" font-weight="700" font-family="DejaVu Sans, Arial, sans-serif">Offline</text>
<rect x="1440.78125" y="46" width="124.09375" height="28" rx="14" fill="#FEF3C7"/>
<text x="1454.78125" y="64" fill="#0F172A" font-size="13" font-weight="700" font-family="DejaVu Sans, Arial, sans-serif">Single-model</text>
<defs><marker id="arrow" viewBox="0 0 10 10" refX="9" refY="5" markerWidth="7" markerHeight="7" orient="auto-start-reverse"><path d="M 0 0 L 10 5 L 0 10 z" fill="#475569" /></marker></defs>
<path d="M 310.0 330.0 L 335.0 330.0 L 335.0 330.0 L 360.0 330.0" fill="none" stroke="#475569" stroke-width="4" marker-end="url(#arrow)"/>
<path d="M 600.0 330.0 L 625.0 330.0 L 625.0 330.0 L 650.0 330.0" fill="none" stroke="#475569" stroke-width="4" marker-end="url(#arrow)"/>
<path d="M 910.0 330.0 L 935.0 330.0 L 935.0 330.0 L 960.0 330.0" fill="none" stroke="#475569" stroke-width="4" marker-end="url(#arrow)"/>
<path d="M 1200.0 330.0 L 1225.0 330.0 L 1225.0 330.0 L 1250.0 330.0" fill="none" stroke="#475569" stroke-width="4" marker-end="url(#arrow)"/>
<path d="M 1380.0 390.0 L 1380.0 445.0 L 1390.0 445.0 L 1390.0 500.0" fill="none" stroke="#475569" stroke-width="4" marker-end="url(#arrow)"/>
<rect x="1325.1" y="405.0" width="119.9" height="32.0" rx="10" fill="#FFFFFF" stroke="#D7DCEA"/>
<text x="1385.0" y="419.0" fill="#475569" font-size="12" font-weight="700" font-family="DejaVu Sans, Arial, sans-serif" text-anchor="middle"><tspan x="1385.0" dy="0">model terkunci</tspan></text>
<path d="M 1270.0 560.0 L 1245.0 560.0 L 1245.0 560.0 L 1220.0 560.0" fill="none" stroke="#475569" stroke-width="4" marker-end="url(#arrow)"/>
<path d="M 990.0 560.0 L 960.0 560.0 L 960.0 560.0 L 930.0 560.0" fill="none" stroke="#475569" stroke-width="4" marker-end="url(#arrow)"/>
<path d="M 690.0 560.0 L 665.0 560.0 L 665.0 560.0 L 640.0 560.0" fill="none" stroke="#475569" stroke-width="4" marker-end="url(#arrow)"/>
<rect x="94" y="276" width="220" height="120" rx="22" fill="#D7DCEA" opacity="0.35"/>
<rect x="90" y="270" width="220" height="120" rx="22" fill="#E0F2FE" stroke="#94A3B8" stroke-width="3"/>
<text x="200.0" y="336.0" fill="#0F172A" font-size="15" font-weight="700" font-family="DejaVu Sans, Arial, sans-serif" text-anchor="middle"><tspan x="200.0" dy="0">Data OCDS mentah</tspan></text>
<rect x="364" y="276" width="240" height="120" rx="22" fill="#D7DCEA" opacity="0.35"/>
<rect x="360" y="270" width="240" height="120" rx="22" fill="#E0F2FE" stroke="#94A3B8" stroke-width="3"/>
<text x="480.0" y="325.0" fill="#0F172A" font-size="15" font-weight="700" font-family="DejaVu Sans, Arial, sans-serif" text-anchor="middle"><tspan x="480.0" dy="0">Raw temporal split</tspan><tspan x="480.0" dy="19.8">train/test</tspan></text>
<rect x="654" y="276" width="260" height="120" rx="22" fill="#D7DCEA" opacity="0.35"/>
<rect x="650" y="270" width="260" height="120" rx="22" fill="#EDE9FE" stroke="#94A3B8" stroke-width="3"/>
<text x="780.0" y="325.0" fill="#0F172A" font-size="15" font-weight="700" font-family="DejaVu Sans, Arial, sans-serif" text-anchor="middle"><tspan x="780.0" dy="0">Feature engineering</tspan><tspan x="780.0" dy="19.8">split-aware</tspan></text>
<rect x="964" y="276" width="240" height="120" rx="22" fill="#D7DCEA" opacity="0.35"/>
<rect x="960" y="270" width="240" height="120" rx="22" fill="#EDE9FE" stroke="#94A3B8" stroke-width="3"/>
<text x="1080.0" y="336.0" fill="#0F172A" font-size="15" font-weight="700" font-family="DejaVu Sans, Arial, sans-serif" text-anchor="middle"><tspan x="1080.0" dy="0">Weak labeling risiko</tspan></text>
<rect x="1254" y="276" width="260" height="120" rx="22" fill="#D7DCEA" opacity="0.35"/>
<rect x="1250" y="270" width="260" height="120" rx="22" fill="#FEF3C7" stroke="#94A3B8" stroke-width="3"/>
<text x="1380.0" y="325.0" fill="#0F172A" font-size="15" font-weight="700" font-family="DejaVu Sans, Arial, sans-serif" text-anchor="middle"><tspan x="1380.0" dy="0">Training XGBoost +</tspan><tspan x="1380.0" dy="19.8">calibration</tspan></text>
<rect x="1274" y="506" width="240" height="120" rx="22" fill="#D7DCEA" opacity="0.35"/>
<rect x="1270" y="500" width="240" height="120" rx="22" fill="#DCFCE7" stroke="#94A3B8" stroke-width="3"/>
<text x="1390.0" y="555.0" fill="#0F172A" font-size="15" font-weight="700" font-family="DejaVu Sans, Arial, sans-serif" text-anchor="middle"><tspan x="1390.0" dy="0">SHAP + narasi Bahasa</tspan><tspan x="1390.0" dy="19.8">Indonesia</tspan></text>
<rect x="994" y="506" width="230" height="120" rx="22" fill="#D7DCEA" opacity="0.35"/>
<rect x="990" y="500" width="230" height="120" rx="22" fill="#FCE7F3" stroke="#94A3B8" stroke-width="3"/>
<text x="1105.0" y="555.0" fill="#0F172A" font-size="15" font-weight="700" font-family="DejaVu Sans, Arial, sans-serif" text-anchor="middle"><tspan x="1105.0" dy="0">Risk lane &amp; audit</tspan><tspan x="1105.0" dy="19.8">triage</tspan></text>
<rect x="694" y="506" width="240" height="120" rx="22" fill="#D7DCEA" opacity="0.35"/>
<rect x="690" y="500" width="240" height="120" rx="22" fill="#FEF3C7" stroke="#94A3B8" stroke-width="3"/>
<text x="810.0" y="555.0" fill="#0F172A" font-size="15" font-weight="700" font-family="DejaVu Sans, Arial, sans-serif" text-anchor="middle"><tspan x="810.0" dy="0">Artefak output</tspan><tspan x="810.0" dy="19.8">reproducible</tspan></text>
<rect x="394" y="506" width="250" height="120" rx="22" fill="#D7DCEA" opacity="0.35"/>
<rect x="390" y="500" width="250" height="120" rx="22" fill="#E0F2FE" stroke="#94A3B8" stroke-width="3"/>
<text x="515.0" y="555.0" fill="#0F172A" font-size="15" font-weight="700" font-family="DejaVu Sans, Arial, sans-serif" text-anchor="middle"><tspan x="515.0" dy="0">Notebook, model,</tspan><tspan x="515.0" dy="19.8">proposal figures</tspan></text>
<rect x="94" y="691" width="1420" height="140" rx="22" fill="#D7DCEA" opacity="0.35"/>
<rect x="90" y="685" width="1420" height="140" rx="22" fill="#F7F8FC" stroke="#CBD5E1" stroke-width="2"/>
<text x="800.0" y="761.0" fill="#0F172A" font-size="15" font-weight="700" font-family="DejaVu Sans, Arial, sans-serif" text-anchor="middle"><tspan x="800.0" dy="0">Kontrol utama: train/test dipisah sebelum preprocessing, inferensi berjalan lokal, dan setiap skor wajib memiliki penjelasan yang dapat dibaca auditor.</tspan></text>
<text x="56" y="924" fill="#64748B" font-size="13" font-family="DejaVu Sans, Arial, sans-serif">LPSE-X | Find IT! 2026 Track C | Generated offline</text>
</svg>