<svg xmlns="http://www.w3.org/2000/svg" width="1760" height="900" viewBox="0 0 1760 900">
<rect width="100%" height="100%" fill="#F7F8FC"/>
<rect x="24" y="24" width="1712" height="852" rx="28" fill="#FFFFFF" stroke="#D7DCEA" stroke-width="2"/>
<text x="56" y="68" fill="#0F172A" font-size="30" font-weight="700" font-family="DejaVu Sans, Arial, sans-serif">Risk Decision Flow untuk Auditor</text>
<text x="56" y="102" fill="#64748B" font-size="15" font-family="DejaVu Sans, Arial, sans-serif">Skor model diterjemahkan menjadi jalur tindak lanjut yang konsisten dan mudah dipahami.</text>
<rect x="1544.921875" y="46" width="157.078125" height="28" rx="14" fill="#DCFCE7"/>
<text x="1558.921875" y="64" fill="#0F172A" font-size="13" font-weight="700" font-family="DejaVu Sans, Arial, sans-serif">Bahasa Indonesia</text>
<rect x="1428.953125" y="46" width="105.96875" height="28" rx="14" fill="#FCE7F3"/>
<text x="1442.953125" y="64" fill="#0F172A" font-size="13" font-weight="700" font-family="DejaVu Sans, Arial, sans-serif">Actionable</text>
<defs><marker id="arrow" viewBox="0 0 10 10" refX="9" refY="5" markerWidth="7" markerHeight="7" orient="auto-start-reverse"><path d="M 0 0 L 10 5 L 0 10 z" fill="#475569" /></marker></defs>
<path d="M 350.0 390.0 L 390.0 390.0 L 390.0 390.0 L 430.0 390.0" fill="none" stroke="#475569" stroke-width="4" marker-end="url(#arrow)"/>
<path d="M 680.0 390.0 L 720.0 390.0 L 720.0 390.0 L 760.0 390.0" fill="none" stroke="#475569" stroke-width="4" marker-end="url(#arrow)"/>
<path d="M 1010.0 390.0 L 1050.0 390.0 L 1050.0 390.0 L 1090.0 390.0" fill="none" stroke="#475569" stroke-width="4" marker-end="url(#arrow)"/>
<path d="M 1340.0 390.0 L 1380.0 390.0 L 1380.0 390.0 L 1420.0 390.0" fill="none" stroke="#475569" stroke-width="4" marker-end="url(#arrow)"/>
<rect x="104" y="326" width="250" height="140" rx="22" fill="#D7DCEA" opacity="0.35"/>
<rect x="100" y="320" width="250" height="140" rx="22" fill="#DCFCE7" stroke="#94A3B8" stroke-width="3"/>
<text x="225.0" y="374.0" fill="#0F172A" font-size="15" font-weight="700" font-family="DejaVu Sans, Arial, sans-serif" text-anchor="middle"><tspan x="225.0" dy="0">Aman</tspan><tspan x="225.0" dy="19.8">Skor rendah, simpan</tspan><tspan x="225.0" dy="19.8">sebagai baseline</tspan></text>
<rect x="434" y="326" width="250" height="140" rx="22" fill="#D7DCEA" opacity="0.35"/>
<rect x="430" y="320" width="250" height="140" rx="22" fill="#FEF3C7" stroke="#94A3B8" stroke-width="3"/>
<text x="555.0" y="374.0" fill="#0F172A" font-size="15" font-weight="700" font-family="DejaVu Sans, Arial, sans-serif" text-anchor="middle"><tspan x="555.0" dy="0">Perlu Pantauan</tspan><tspan x="555.0" dy="19.8">Monitor pola dan</tspan><tspan x="555.0" dy="19.8">perubahan mendadak</tspan></text>
<rect x="764" y="326" width="250" height="140" rx="22" fill="#D7DCEA" opacity="0.35"/>
<rect x="760" y="320" width="250" height="140" rx="22" fill="#FED7AA" stroke="#94A3B8" stroke-width="3"/>
<text x="885.0" y="374.0" fill="#0F172A" font-size="15" font-weight="700" font-family="DejaVu Sans, Arial, sans-serif" text-anchor="middle"><tspan x="885.0" dy="0">Risiko Tinggi</tspan><tspan x="885.0" dy="19.8">Prioritaskan review</tspan><tspan x="885.0" dy="19.8">manual cepat</tspan></text>
<rect x="1094" y="326" width="250" height="140" rx="22" fill="#D7DCEA" opacity="0.35"/>
<rect x="1090" y="320" width="250" height="140" rx="22" fill="#FECACA" stroke="#94A3B8" stroke-width="3"/>
<text x="1215.0" y="374.0" fill="#0F172A" font-size="15" font-weight="700" font-family="DejaVu Sans, Arial, sans-serif" text-anchor="middle"><tspan x="1215.0" dy="0">Prioritas Review</tspan><tspan x="1215.0" dy="19.8">Kritis: review manual</tspan><tspan x="1215.0" dy="19.8">+ verifikasi bukti resmi</tspan></text>
<rect x="1424" y="326" width="230" height="140" rx="22" fill="#D7DCEA" opacity="0.35"/>
<rect x="1420" y="320" width="230" height="140" rx="22" fill="#FCE7F3" stroke="#94A3B8" stroke-width="3"/>
<text x="1535.0" y="374.0" fill="#0F172A" font-size="15" font-weight="700" font-family="DejaVu Sans, Arial, sans-serif" text-anchor="middle"><tspan x="1535.0" dy="0">Eskalasi manual</tspan><tspan x="1535.0" dy="19.8">Cocokkan dengan bukti</tspan><tspan x="1535.0" dy="19.8">resmi</tspan></text>
<rect x="94" y="616" width="1560" height="120" rx="22" fill="#D7DCEA" opacity="0.35"/>
<rect x="90" y="610" width="1560" height="120" rx="22" fill="#F7F8FC" stroke="#CBD5E1" stroke-width="2"/>
<text x="870.0" y="676.0" fill="#0F172A" font-size="15" font-weight="700" font-family="DejaVu Sans, Arial, sans-serif" text-anchor="middle"><tspan x="870.0" dy="0">Setiap lane menyimpan alasan: skor probabilitas, faktor SHAP teratas, dan narasi auditor-friendly. Semakin tinggi lane, semakin ketat verifikasi bukti resminya.</tspan></text>
<text x="56" y="844" fill="#64748B" font-size="13" font-family="DejaVu Sans, Arial, sans-serif">LPSE-X | Find IT! 2026 Track C | Generated offline</text>
</svg>